<svg version="1.2" xmlns="http://www.w3.org/2000/svg" viewBox="0 0 982 536" width="982" height="536"><style>.a{fill:#43054e}.b{fill:#ec0089}</style><path class="a" d="m321.7 177.6h104.9v-52.9h-159.4c-6.9 0-10.6 3.7-10.6 10.6v264.7c0 6.9 3.7 10.6 10.6 10.6h168.7v-52.9h-114.2v-63.6h134v-58.2h-134z"/><path class="a" d="m213.7 128.9c-12.2-3.7-40.7-6.9-61.4-6.9-92.1 0-152 63.7-152 146.3 0 88.4 62.5 145 163.7 145 18.5 0 36.5-1.6 60.8-8v-56.1c-11.1 3.2-32.3 5.3-52.9 5.3-68.8 0-105.4-33.8-105.4-87.8 0-49.3 28.1-86.4 86.9-86.4 5.9 0 11.7 0.4 18 1.2v30h53.4v-68.3c0-4.7 0-10.6-11.1-14.3z"/><path class="a" d="m662.2 293.1c0 43.9-18 67.2-55 67.2-36.6 0-54.6-22.8-54.6-66.7v-158.3c0-6.9-3.7-10.6-10.6-10.6h-83.6v52.9h29.1v125c0 69.9 48.7 110.7 118.6 110.7 70.4 0 121.3-40.8 121.3-111.2v-123.9h-65.2z"/><path fill-rule="evenodd" class="a" d="m981.5 327c0 52.9-38.1 84.2-102.2 84.2h-55v-53h43.9c32.3 0 47.1-13.2 47.1-35 0-20.6-14.8-32.8-47.1-32.8h-98.5c-6.9 0-10.6-3.7-10.6-10.6v-144.5c0-6.9 3.7-10.6 10.6-10.6h110.2c55.6 0 97.9 28 97.9 78.3 0 30.4-20.5 53-46.3 61 27.8 7.4 50 30 50 63zm-69.3-117.6c0-20.1-14.3-31.8-38.2-31.8h-49.7v59.9h49.7c23.9 0 38.2-10.6 38.2-28.1z"/><path class="b" d="m662.2 178.2h65.2v-177.9h-65.2z"/><path class="b" d="m824.3 358.2h-54.6c-6.9 0-10.6 3.7-10.6 10.6v167.3h65.2z"/></svg>